<?xml version="1.0" encoding="UTF-8"?>
<svg id="Layer_2" data-name="Layer 2" xmlns="http://www.w3.org/2000/svg" width="737.45" height="737.45" viewBox="0 0 737.45 737.45">
  <defs>
    <style>
      .cls-1 {
        fill: #f2f2f2;
        opacity: .29;
      }

      .cls-1, .cls-2, .cls-3 {
        stroke-width: 3px;
      }

      .cls-1, .cls-2, .cls-3, .cls-4 {
        stroke: #941b0c;
        stroke-miterlimit: 10;
      }

      .cls-5 {
        fill: #feeec9;
        stroke-width: 0px;
      }

      .cls-2, .cls-4 {
        fill: #941b0c;
      }

      .cls-3 {
        fill: none;
      }

      .cls-4 {
        stroke-width: 2px;
      }
    </style>
  </defs>
  <g id="Layer_1-2" data-name="Layer 1">
    <g>
      <circle class="cls-5" cx="368.73" cy="368.73" r="368.73"/>
      <g>
        <g>
          <rect class="cls-2" x="448.69" y="354.07" width="80.21" height="272.09" rx="27.45" ry="27.45" transform="translate(869.71 1068.08) rotate(-168.47)"/>
          <ellipse class="cls-1" cx="458.18" cy="483.09" rx="85.25" ry="8.31" transform="translate(-106.78 835.42) rotate(-78.47)"/>
          <path class="cls-3" d="m551.7,378.81c8.94.21,9.76,3.51,11.04,13.9-18.73,84.09-41.2,193.1-57.06,216.2-.74,8.17-7.08,14.78-9.65,15.59-.97.3,2.23,1.48,9.65-2.97,10.41-6.98,14.55-20.35,17.42-29.35l47.08-182.12c.97-6.14-1.31-11.94-7.43-17.35"/>
          <path class="cls-2" d="m520.07,599.62c2.99,1.92,6.06,1.82,9.22,0,31.78-59.39,53.16-118.85,59.47-178.41-3.84-6.69-10.36-8.63-18.37-7.97"/>
          <path class="cls-2" d="m619.73,387.76c-8.27,1.19-15.93,4.44-13.63,40.88-5.77,37.67-44.6,163.54-39.65,159.82,4.96-3.72,33.36-40.99,52.04-107.79,3.27-27.14,2.28-58.61,1.24-92.92Z"/>
          <path class="cls-3" d="m529.29,599.62c-8.95,15.24-9.85,21.42-5.12,21.25,18.87-6.25,33.93-16.13,42.29-32.4"/>
          <path class="cls-3" d="m509.46,144.93c45.84,30.97,95.05,79.49,101.59,157.34,3.26,33.89,6.33,65.08,8.67,85.49"/>
          <path class="cls-3" d="m588.75,421.21c6.41-28.47,5.97-72.01,4.62-117.54-14.01-65.88-44.62-114.15-95.06-141.4"/>
          <rect class="cls-2" x="207.31" y="354.07" width="80.21" height="272.09" rx="27.45" ry="27.45" transform="translate(-93.01 59.37) rotate(-11.53)"/>
          <ellipse class="cls-1" cx="278.03" cy="483.09" rx="8.31" ry="85.25" transform="translate(-90.98 65.35) rotate(-11.53)"/>
          <path class="cls-3" d="m185.01,378.07c-8.94.21-10.26,4.25-11.54,14.64,18.73,84.09,40.96,191.62,56.82,214.72,2.23,13.36,8.17,15.59,8.17,15.59,2.23,2.97-10.39-3.71-13.36-5.94-10.41-6.98-9.12-15.89-11.98-24.9l-47.08-182.12c-.97-6.14,1.31-11.94,7.43-17.35"/>
          <path class="cls-2" d="m214.7,600.01c-2.99,1.92-4.63,1.42-7.78-.39-31.78-59.39-53.16-118.85-59.47-178.41,3.84-6.69,10.36-8.63,18.37-7.97"/>
          <path class="cls-2" d="m116.48,387.76c8.27,1.19,15.93,4.44,13.63,40.88,5.77,37.67,44.6,163.54,39.65,159.82-4.96-3.72-33.36-40.99-52.04-107.79-3.27-27.14-2.28-58.61-1.24-92.92Z"/>
          <path class="cls-3" d="m206.92,599.62c8.95,15.24,9.85,21.42,5.12,21.25-18.87-6.25-33.93-16.13-42.29-32.4"/>
          <path class="cls-3" d="m516.66,149.88c-91.44-64.42-206.66-69.38-291.15-4.96-46.24,40.37-93.81,79.49-100.35,157.34-3.26,33.89-6.33,65.08-8.67,85.49"/>
          <path class="cls-3" d="m147.45,421.21c-6.41-28.47-5.97-72.01-4.62-117.54,14.01-65.88,44.62-114.15,95.06-141.4,73.78-42.34,153.55-65.69,262.89,1.24"/>
        </g>
        <path class="cls-4" d="m262.08,151.54c8.58,12.64,23.11,15.48,46.86,3.12,42.11-11.02,81.16-12.19,116.55-1.56,35.21,14.56,48.44,10.69,55.42,1.56-63.66-45.41-134.84-49.88-214.67-7.29l-4.17,4.17Z"/>
      </g>
    </g>
  </g>
</svg>